<?xml version="1.0" encoding="UTF-8" standalone="no"?>
<!-- Created with Inkscape (http://www.inkscape.org/) -->

<svg
   xmlns:dc="http://purl.org/dc/elements/1.1/"
   xmlns:cc="http://creativecommons.org/ns#"
   xmlns:rdf="http://www.w3.org/1999/02/22-rdf-syntax-ns#"
   xmlns:svg="http://www.w3.org/2000/svg"
   xmlns="http://www.w3.org/2000/svg"
   xmlns:sodipodi="http://sodipodi.sourceforge.net/DTD/sodipodi-0.dtd"
   xmlns:inkscape="http://www.inkscape.org/namespaces/inkscape"
   version="1.1"
   id="svg2"
   xml:space="preserve"
   width="470.66666"
   height="329.33334"
   viewBox="0 0 470.66666 329.33334"
   sodipodi:docname="gestational-age-pattern.svg"
   inkscape:version="0.92.3 (2405546, 2018-03-11)"><metadata
     id="metadata8"><rdf:RDF><cc:Work
         rdf:about=""><dc:format>image/svg+xml</dc:format><dc:type
           rdf:resource="http://purl.org/dc/dcmitype/StillImage" /><dc:title /></cc:Work></rdf:RDF></metadata><defs
     id="defs6"><clipPath
       clipPathUnits="userSpaceOnUse"
       id="clipPath38"><path
         d="M 0.75,0 H 352.44 V 247.24 H 0.75 Z"
         id="path36"
         inkscape:connector-curvature="0" /></clipPath><clipPath
       clipPathUnits="userSpaceOnUse"
       id="clipPath48"><path
         d="m 31.54,19.77 h 320.9 V 244.4 H 31.54 Z"
         id="path46"
         inkscape:connector-curvature="0" /></clipPath></defs><sodipodi:namedview
     pagecolor="#ffffff"
     bordercolor="#666666"
     borderopacity="1"
     objecttolerance="10"
     gridtolerance="10"
     guidetolerance="10"
     inkscape:pageopacity="0"
     inkscape:pageshadow="2"
     inkscape:window-width="1920"
     inkscape:window-height="1012"
     id="namedview4"
     showgrid="false"
     inkscape:pagecheckerboard="false"
     inkscape:zoom="2.0268486"
     inkscape:cx="193.39063"
     inkscape:cy="188.61915"
     inkscape:window-x="0"
     inkscape:window-y="0"
     inkscape:window-maximized="1"
     inkscape:current-layer="g10" /><g
     id="g10"
     inkscape:groupmode="layer"
     inkscape:label="gestational-age-pattern"
     transform="matrix(1.3333333,0,0,-1.3333333,0,329.33333)"><g
   id="g12" /><g
   id="g14" /><g
   id="g16" /><g
   id="g18" /><g
   id="g20" /><g
   id="g22" /><g
   id="g24" /><g
   id="g26" /><g
   id="g28" /><g
   id="g30" /><g
   id="g32"><g
     id="g34"
     clip-path="url(#clipPath38)" /></g><g
   id="g40" /><g
   id="g42"><g
     id="g44"
     clip-path="url(#clipPath48)"><path
       d="m 31.54,244.4 h 6.06 v -20.49 h 6.05 v -15.75 h 6.06 v -25.39 h 6.05 v 0.28 h 6.06 v -21 h 6.05 v -0.19 h 6.05 v -7.18 h 6.06 v 2.56 h 6.05 v -2.49 h 6.06 v 21.95 h 6.05 v -2.93 h 6.06 v 22.63 h 6.05 v 6.94 h 6.06 v 6.71 h 6.05 v -4.27 h 6.06 v -31.71 h 6.05 v -41.65 h 6.06 V 95.61 h 6.05 v -9.19 h 6.06 V 73.1 h 6.05 v -1.17 h 6.06 v -3.87 h 6.05 v -0.35 h 6.06 v -6.35 h 6.05 v -2.84 h 6.06 v 0.01 h 6.05 v -1.89 h 6.05 V 57 h 6.06 v -3.09 h 6.05 v 0.36 h 6.06 v -7.86 h 6.05 v -1.08 h 6.06 v -3.24 h 6.05 v -0.72 h 6.06 v -2.18 h 6.05 v 1.09 h 6.06 v -2.91 h 6.05 v 0.97 h 6.06 v -1.45 h 6.05 v -3.43 h 6.06 v 0 h 6.05 v -0.49 h 6.06 v -1.36 h 6.05 v -0.75 h 6.06 v -1.37 h 6.05 v 1 h 6.06 v 0.25 h 6.05 v 0.37 h 6.06 v -1.87 h 6.05 v 0.25 h 6.05 v -0.38 h 6.06 v -0.67 h 6.05 v -3.53 h -6.05 v 0.53 h -6.06 v 0.3 h -6.05 v -0.2 h -6.05 v 1.49 h -6.06 v -0.3 h -6.05 v -0.2 h -6.06 v -0.79 h -6.05 v 1.09 h -6.06 v 0.6 h -6.05 v 1.1 h -6.06 v 0.4 h -6.05 v 0 h -6.06 v 2.85 h -6.05 v 1.23 h -6.06 v -0.82 h -6.05 v 2.46 h -6.06 v -0.93 h -6.05 v 1.86 h -6.06 v 0.62 h -6.05 V 39 h -6.06 v 0.93 h -6.05 v 6.92 h -6.06 v -0.32 h -6.05 v 2.74 h -6.06 v -0.32 h -6.05 v 1.68 h -6.05 v 0 h -6.06 v 2.53 h -6.05 v 5.73 h -6.06 v 0.31 h -6.05 v 3.51 h -6.06 v 1.06 h -6.05 v 12.17 h -6.06 v 8.46 h -6.05 v 34.27 h -6.06 v 39.23 h -6.05 v 30.08 h -6.06 v 4.07 h -6.05 v -6.38 h -6.06 v -6.59 h -6.05 v -21.45 h -6.06 v 2.78 h -6.05 v -20.74 h -6.06 v 2.35 h -6.05 v -2.41 h -6.06 v 6.77 h -6.05 v 0.18 h -6.05 v 19.88 h -6.06 v -0.27 h -6.05 v 24.11 h -6.06 v 15.01 H 37.6 v 19.57 h -6.06 z"
       style="fill:#e6e6e6;fill-opacity:0.97872341;fill-rule:nonzero;stroke:none;paint-order:normal"
       id="path52"
       inkscape:connector-curvature="0" /><path
       d="m 31.54,234.63 h 6.06 v 0 0 -20.03 h 6.05 v 0 0 -15.38 h 6.06 v 0 0 -24.75 h 6.05 v 0 0 0.27 h 6.06 v 0 0 -20.44 h 6.05 v 0 0 -0.18 h 6.05 v 0 0 -6.98 h 6.06 v 0 0 2.49 h 6.05 v 0 0 -2.42 h 6.06 v 0 0 21.35 h 6.05 v 0 0 -2.86 h 6.06 v 0 0 22.04 h 6.05 v 0 0 6.76 h 6.06 v 0 0 6.55 h 6.05 v 0 0 -4.17 h 6.06 v 0 0 -30.9 h 6.05 v 0 0 -40.43 h 6.06 v 0 0 V 90 h 6.05 v 0 0 -8.82 h 6.06 v 0 0 -12.75 h 6.05 v 0 0 -1.11 h 6.06 v 0 0 -3.69 h 6.05 v 0 0 -0.33 h 6.06 v 0 0 -6.04 h 6.05 v 0 0 -2.68 h 6.06 v 0 0 0 h 6.05 v 0 0 -1.79 h 6.05 v 0 0 0.34 h 6.06 v 0 0 -2.91 h 6.05 v 0 0 0.34 h 6.06 v 0 0 -7.39 h 6.05 v 0 0 -1 h 6.06 v 0 0 -3.03 h 6.05 v 0 0 -0.67 h 6.06 v 0 0 -2.01 h 6.05 v 0 0 1.01 h 6.06 v 0 0 -2.69 h 6.05 v 0 0 0.89 h 6.06 v 0 0 -1.34 h 6.05 v 0 0 -3.13 h 6.06 v 0 0 0 h 6.05 v 0 0 -0.45 h 6.06 v 0 0 -1.23 h 6.05 v 0 0 -0.68 h 6.06 v 0 0 -1.23 h 6.05 v 0 0 0.9 h 6.06 v 0 0 0.22 h 6.05 v 0 0 0.34 h 6.06 v 0 0 -1.68 h 6.05 v 0 0 0.22 h 6.05 v 0 0 -0.33 h 6.06 v 0 0 -0.61 h 6.05 v 0"
       style="fill:none;stroke:#000000;stroke-width:1.07000003;stroke-linecap:butt;stroke-linejoin:miter;stroke-miterlimit:10;stroke-dasharray:none;stroke-opacity:1"
       id="path50"
       inkscape:connector-curvature="0" /><path
       d="m 31.54,20.21 h 6.06 v 0.08 h 6.05 v 0.09 h 6.06 v 0.09 h 6.05 v 0.22 h 6.06 v 0.2 h 6.05 v 0.4 h 6.05 v 0.45 h 6.06 v 0.87 h 6.05 v 1.28 h 6.06 v 2.89 h 6.05 v 4.25 h 6.06 v 8.75 h 6.05 V 60.2 h 6.06 v 40.77 h 6.05 v 44.55 h 6.06 v -40.25 h 6.05 V 56.54 h 6.06 V 31.77 h 6.05 v -5.81 h 6.06 v -2.95 h 6.05 v -1.54 h 6.06 v -0.79 h 6.05 v -0.35 h 6.06 v -0.56 h 6.05 v 0 h 6.06 v 0 h 6.05 v 0 h 6.05 v 0 h 6.06 v 0 h 6.05 v 0 h 6.06 v 0 h 6.05 v 0 h 6.06 v 0 h 6.05 v 0 h 6.06 v 0 h 6.05 v 0 h 6.06 v 0 h 6.05 v 0 h 6.06 v 0 h 6.05 v 0 h 6.06 v 0 h 6.05 v 0 h 6.06 v 0 h 6.05 v 0 h 6.06 v 0 h 6.05 v 0 h 6.06 v 0 h 6.05 v 0 h 6.06 v 0 h 6.05 v 0 h 6.05 v 0 h 6.06 v 0 h 6.05 v 0 h -6.05 v 0 h -6.06 v 0 h -6.05 v 0 h -6.05 v 0 h -6.06 v 0 h -6.05 v 0 h -6.06 v 0 h -6.05 v 0 h -6.06 v 0 h -6.05 v 0 h -6.06 v 0 h -6.05 v 0 h -6.06 v 0 h -6.05 v 0 h -6.06 v 0 h -6.05 v 0 h -6.06 v 0 h -6.05 v 0 h -6.06 v 0 h -6.05 v 0 h -6.06 v 0 h -6.05 v 0 h -6.06 v 0 h -6.05 v 0 h -6.06 v 0 h -6.05 v 0 h -6.05 v 0 h -6.06 v 0 h -6.05 v 0 h -6.06 v 0 h -6.05 v 0 h -6.06 v 0 h -6.05 v 0 h -6.06 v 0 h -6.05 v 0 h -6.06 v 0 h -6.05 v 0 h -6.06 v 0 h -6.05 v 0 h -6.06 v 0 h -6.05 v 0 h -6.06 v 0 h -6.05 v 0 h -6.06 v 0 h -6.05 v 0 h -6.06 v 0 h -6.05 v 0 h -6.05 v 0 h -6.06 v 0 h -6.05 v 0 h -6.06 v 0 H 37.6 v 0 h -6.06 z"
       style="fill:#cccccc;fill-opacity:1;fill-rule:nonzero;stroke:none"
       id="path54"
       inkscape:connector-curvature="0" /></g></g><g
   id="g56" /><g
   id="g58" /><g
   id="g60" /><g
   id="g62" /><g
   id="g64" /><g
   id="g66" /><g
   id="g68" /><g
   id="g70" /><g
   id="g72" /><g
   id="g74" /><g
   id="g76" /><g
   id="g78" /><g
   id="g80"><path
     d="M 31.54,19.77 V 244.4"
     style="fill:none;stroke:#000000;stroke-width:0.64000001;stroke-linecap:square;stroke-linejoin:round;stroke-miterlimit:10;stroke-dasharray:none;stroke-opacity:1"
     id="path82"
     inkscape:connector-curvature="0" /></g><g
   id="g84" /><g
   id="g86" /><g
   id="g88"><text
   transform="matrix(1,0,0,-1,23.95,17.12)"
   style="font-variant:normal;font-weight:normal;font-size:8px;font-family:'Nimbus Roman No9 L';-inkscape-font-specification:'Nimbus Roman No9 L';writing-mode:lr-tb;fill:#000000;fill-opacity:1;fill-rule:nonzero;stroke:none;font-style:normal;font-stretch:normal;"
   id="text92"><tspan
     x="0"
     y="0"
     id="tspan90"
     style="-inkscape-font-specification:'Nimbus Roman No9 L';font-family:'Nimbus Roman No9 L';font-weight:normal;font-style:normal;font-stretch:normal;font-variant:normal;">0</tspan></text>


<text
   transform="matrix(1,0,0,-1,19.95,61.85)"
   style="font-variant:normal;font-weight:normal;font-size:8px;font-family:'Nimbus Roman No9 L';-inkscape-font-specification:'Nimbus Roman No9 L';writing-mode:lr-tb;fill:#000000;fill-opacity:1;fill-rule:nonzero;stroke:none;font-style:normal;font-stretch:normal;"
   id="text96"><tspan
     x="0"
     y="0"
     sodipodi:role="line"
     id="tspan94">10</tspan></text>


<text
   transform="matrix(1,0,0,-1,19.95,106.57)"
   style="font-variant:normal;font-weight:normal;font-size:8px;font-family:'Nimbus Roman No9 L';-inkscape-font-specification:'Nimbus Roman No9 L';writing-mode:lr-tb;fill:#000000;fill-opacity:1;fill-rule:nonzero;stroke:none;font-style:normal;font-stretch:normal;"
   id="text100"><tspan
     x="0"
     y="0"
     sodipodi:role="line"
     id="tspan98">20</tspan></text>


<text
   transform="matrix(1,0,0,-1,19.95,151.3)"
   style="font-variant:normal;font-weight:normal;font-size:8px;font-family:'Nimbus Roman No9 L';-inkscape-font-specification:'Nimbus Roman No9 L';writing-mode:lr-tb;fill:#000000;fill-opacity:1;fill-rule:nonzero;stroke:none;font-style:normal;font-stretch:normal;"
   id="text104"><tspan
     x="0"
     y="0"
     sodipodi:role="line"
     id="tspan102">30</tspan></text>


<text
   transform="matrix(1,0,0,-1,19.95,196.02)"
   style="font-variant:normal;font-weight:normal;font-size:8px;font-family:'Nimbus Roman No9 L';-inkscape-font-specification:'Nimbus Roman No9 L';writing-mode:lr-tb;fill:#000000;fill-opacity:1;fill-rule:nonzero;stroke:none;font-style:normal;font-stretch:normal;"
   id="text108"><tspan
     x="0"
     y="0"
     sodipodi:role="line"
     id="tspan106">40</tspan></text>


<text
   transform="matrix(1,0,0,-1,19.95,240.75)"
   style="font-variant:normal;font-weight:normal;font-size:8px;font-family:'Nimbus Roman No9 L';-inkscape-font-specification:'Nimbus Roman No9 L';writing-mode:lr-tb;fill:#000000;fill-opacity:1;fill-rule:nonzero;stroke:none;font-style:normal;font-stretch:normal;"
   id="text112"><tspan
     x="0"
     y="0"
     sodipodi:role="line"
     id="tspan110">50</tspan></text>


</g><g
   id="g114" /><g
   id="g116"><path
     d="m 29.55,19.77 h 1.99"
     style="fill:none;stroke:#000000;stroke-width:0.31999999;stroke-linecap:square;stroke-linejoin:round;stroke-miterlimit:10;stroke-dasharray:none;stroke-opacity:1"
     id="path118"
     inkscape:connector-curvature="0" /><path
     d="m 29.55,64.5 h 1.99"
     style="fill:none;stroke:#000000;stroke-width:0.31999999;stroke-linecap:square;stroke-linejoin:round;stroke-miterlimit:10;stroke-dasharray:none;stroke-opacity:1"
     id="path120"
     inkscape:connector-curvature="0" /><path
     d="m 29.55,109.22 h 1.99"
     style="fill:none;stroke:#000000;stroke-width:0.31999999;stroke-linecap:square;stroke-linejoin:round;stroke-miterlimit:10;stroke-dasharray:none;stroke-opacity:1"
     id="path122"
     inkscape:connector-curvature="0" /><path
     d="m 29.55,153.95 h 1.99"
     style="fill:none;stroke:#000000;stroke-width:0.31999999;stroke-linecap:square;stroke-linejoin:round;stroke-miterlimit:10;stroke-dasharray:none;stroke-opacity:1"
     id="path124"
     inkscape:connector-curvature="0" /><path
     d="m 29.55,198.67 h 1.99"
     style="fill:none;stroke:#000000;stroke-width:0.31999999;stroke-linecap:square;stroke-linejoin:round;stroke-miterlimit:10;stroke-dasharray:none;stroke-opacity:1"
     id="path126"
     inkscape:connector-curvature="0" /><path
     d="m 29.55,243.4 h 1.99"
     style="fill:none;stroke:#000000;stroke-width:0.31999999;stroke-linecap:square;stroke-linejoin:round;stroke-miterlimit:10;stroke-dasharray:none;stroke-opacity:1"
     id="path128"
     inkscape:connector-curvature="0" /></g><g
   id="g130" /><g
   id="g132" /><g
   id="g134" /><g
   id="g136" /><g
   id="g138" /><g
   id="g140" /><g
   id="g142"><path
     d="m 31.54,19.77 h 320.9"
     style="fill:none;stroke:#000000;stroke-width:0.63999999;stroke-linecap:square;stroke-linejoin:round;stroke-miterlimit:10;stroke-dasharray:none;stroke-opacity:1"
     id="path144"
     inkscape:connector-curvature="0" /></g><g
   id="g146" /><g
   id="g148" /><g
   id="g150"><path
     d="m 31.54,17.78 v 1.99"
     style="fill:none;stroke:#000000;stroke-width:0.31999999;stroke-linecap:square;stroke-linejoin:round;stroke-miterlimit:10;stroke-dasharray:none;stroke-opacity:1"
     id="path152"
     inkscape:connector-curvature="0" /><path
     d="m 55.76,17.78 v 1.99"
     style="fill:none;stroke:#000000;stroke-width:0.31999999;stroke-linecap:square;stroke-linejoin:round;stroke-miterlimit:10;stroke-dasharray:none;stroke-opacity:1"
     id="path154"
     inkscape:connector-curvature="0" /><path
     d="m 79.98,17.78 v 1.99"
     style="fill:none;stroke:#000000;stroke-width:0.31999999;stroke-linecap:square;stroke-linejoin:round;stroke-miterlimit:10;stroke-dasharray:none;stroke-opacity:1"
     id="path156"
     inkscape:connector-curvature="0" /><path
     d="m 104.2,17.78 v 1.99"
     style="fill:none;stroke:#000000;stroke-width:0.31999999;stroke-linecap:square;stroke-linejoin:round;stroke-miterlimit:10;stroke-dasharray:none;stroke-opacity:1"
     id="path158"
     inkscape:connector-curvature="0" /><path
     d="m 128.42,17.78 v 1.99"
     style="fill:none;stroke:#000000;stroke-width:0.31999999;stroke-linecap:square;stroke-linejoin:round;stroke-miterlimit:10;stroke-dasharray:none;stroke-opacity:1"
     id="path160"
     inkscape:connector-curvature="0" /><path
     d="m 152.64,17.78 v 1.99"
     style="fill:none;stroke:#000000;stroke-width:0.31999999;stroke-linecap:square;stroke-linejoin:round;stroke-miterlimit:10;stroke-dasharray:none;stroke-opacity:1"
     id="path162"
     inkscape:connector-curvature="0" /><path
     d="m 176.86,17.78 v 1.99"
     style="fill:none;stroke:#000000;stroke-width:0.31999999;stroke-linecap:square;stroke-linejoin:round;stroke-miterlimit:10;stroke-dasharray:none;stroke-opacity:1"
     id="path164"
     inkscape:connector-curvature="0" /><path
     d="m 201.07,17.78 v 1.99"
     style="fill:none;stroke:#000000;stroke-width:0.31999999;stroke-linecap:square;stroke-linejoin:round;stroke-miterlimit:10;stroke-dasharray:none;stroke-opacity:1"
     id="path166"
     inkscape:connector-curvature="0" /><path
     d="m 225.29,17.78 v 1.99"
     style="fill:none;stroke:#000000;stroke-width:0.31999999;stroke-linecap:square;stroke-linejoin:round;stroke-miterlimit:10;stroke-dasharray:none;stroke-opacity:1"
     id="path168"
     inkscape:connector-curvature="0" /><path
     d="m 249.51,17.78 v 1.99"
     style="fill:none;stroke:#000000;stroke-width:0.31999999;stroke-linecap:square;stroke-linejoin:round;stroke-miterlimit:10;stroke-dasharray:none;stroke-opacity:1"
     id="path170"
     inkscape:connector-curvature="0" /><path
     d="m 273.73,17.78 v 1.99"
     style="fill:none;stroke:#000000;stroke-width:0.31999999;stroke-linecap:square;stroke-linejoin:round;stroke-miterlimit:10;stroke-dasharray:none;stroke-opacity:1"
     id="path172"
     inkscape:connector-curvature="0" /><path
     d="m 297.95,17.78 v 1.99"
     style="fill:none;stroke:#000000;stroke-width:0.31999999;stroke-linecap:square;stroke-linejoin:round;stroke-miterlimit:10;stroke-dasharray:none;stroke-opacity:1"
     id="path174"
     inkscape:connector-curvature="0" /><path
     d="m 322.17,17.78 v 1.99"
     style="fill:none;stroke:#000000;stroke-width:0.31999999;stroke-linecap:square;stroke-linejoin:round;stroke-miterlimit:10;stroke-dasharray:none;stroke-opacity:1"
     id="path176"
     inkscape:connector-curvature="0" /><path
     d="m 346.39,17.78 v 1.99"
     style="fill:none;stroke:#000000;stroke-width:0.31999999;stroke-linecap:square;stroke-linejoin:round;stroke-miterlimit:10;stroke-dasharray:none;stroke-opacity:1"
     id="path178"
     inkscape:connector-curvature="0" /></g><g
   id="g180" /><g
   id="g182"><text
   transform="matrix(1,0,0,-1,27.54,10.89)"
   style="font-variant:normal;font-weight:normal;font-size:8px;font-family:'Nimbus Roman No9 L';-inkscape-font-specification:'Nimbus Roman No9 L';writing-mode:lr-tb;fill:#000000;fill-opacity:1;fill-rule:nonzero;stroke:none;font-style:normal;font-stretch:normal;"
   id="text186"><tspan
     x="0"
     y="0"
     sodipodi:role="line"
     id="tspan184">24</tspan></text>


<text
   transform="matrix(1,0,0,-1,51.76,10.89)"
   style="font-variant:normal;font-weight:normal;font-size:8px;font-family:'Nimbus Roman No9 L';-inkscape-font-specification:'Nimbus Roman No9 L';writing-mode:lr-tb;fill:#000000;fill-opacity:1;fill-rule:nonzero;stroke:none;font-style:normal;font-stretch:normal;"
   id="text190"><tspan
     x="0"
     y="0"
     sodipodi:role="line"
     id="tspan188">28</tspan></text>


<text
   transform="matrix(1,0,0,-1,75.98,10.89)"
   style="font-variant:normal;font-weight:normal;font-size:8px;font-family:'Nimbus Roman No9 L';-inkscape-font-specification:'Nimbus Roman No9 L';writing-mode:lr-tb;fill:#000000;fill-opacity:1;fill-rule:nonzero;stroke:none;font-style:normal;font-stretch:normal;"
   id="text194"><tspan
     x="0"
     y="0"
     sodipodi:role="line"
     id="tspan192">32</tspan></text>


<text
   transform="matrix(1,0,0,-1,100.2,10.89)"
   style="font-variant:normal;font-weight:normal;font-size:8px;font-family:'Nimbus Roman No9 L';-inkscape-font-specification:'Nimbus Roman No9 L';writing-mode:lr-tb;fill:#000000;fill-opacity:1;fill-rule:nonzero;stroke:none;font-style:normal;font-stretch:normal;"
   id="text198"><tspan
     x="0"
     y="0"
     sodipodi:role="line"
     id="tspan196">36</tspan></text>


<text
   transform="matrix(1,0,0,-1,124.42,10.89)"
   style="font-variant:normal;font-weight:normal;font-size:8px;font-family:'Nimbus Roman No9 L';-inkscape-font-specification:'Nimbus Roman No9 L';writing-mode:lr-tb;fill:#000000;fill-opacity:1;fill-rule:nonzero;stroke:none;font-style:normal;font-stretch:normal;"
   id="text202"><tspan
     x="0"
     y="0"
     sodipodi:role="line"
     id="tspan200">40</tspan></text>


<text
   transform="matrix(1,0,0,-1,148.64,10.89)"
   style="font-variant:normal;font-weight:normal;font-size:8px;font-family:'Nimbus Roman No9 L';-inkscape-font-specification:'Nimbus Roman No9 L';writing-mode:lr-tb;fill:#000000;fill-opacity:1;fill-rule:nonzero;stroke:none;font-style:normal;font-stretch:normal;"
   id="text206"><tspan
     x="0"
     y="0"
     sodipodi:role="line"
     id="tspan204">44</tspan></text>


<text
   transform="matrix(1,0,0,-1,172.86,10.89)"
   style="font-variant:normal;font-weight:normal;font-size:8px;font-family:'Nimbus Roman No9 L';-inkscape-font-specification:'Nimbus Roman No9 L';writing-mode:lr-tb;fill:#000000;fill-opacity:1;fill-rule:nonzero;stroke:none;font-style:normal;font-stretch:normal;"
   id="text210"><tspan
     x="0"
     y="0"
     sodipodi:role="line"
     id="tspan208">48</tspan></text>


<text
   transform="matrix(1,0,0,-1,197.07,10.89)"
   style="font-variant:normal;font-weight:normal;font-size:8px;font-family:'Nimbus Roman No9 L';-inkscape-font-specification:'Nimbus Roman No9 L';writing-mode:lr-tb;fill:#000000;fill-opacity:1;fill-rule:nonzero;stroke:none;font-style:normal;font-stretch:normal;"
   id="text214"><tspan
     x="0"
     y="0"
     sodipodi:role="line"
     id="tspan212">52</tspan></text>


<text
   transform="matrix(1,0,0,-1,221.29,10.89)"
   style="font-variant:normal;font-weight:normal;font-size:8px;font-family:'Nimbus Roman No9 L';-inkscape-font-specification:'Nimbus Roman No9 L';writing-mode:lr-tb;fill:#000000;fill-opacity:1;fill-rule:nonzero;stroke:none;font-style:normal;font-stretch:normal;"
   id="text218"><tspan
     x="0"
     y="0"
     sodipodi:role="line"
     id="tspan216">56</tspan></text>


<text
   transform="matrix(1,0,0,-1,245.51,10.89)"
   style="font-variant:normal;font-weight:normal;font-size:8px;font-family:'Nimbus Roman No9 L';-inkscape-font-specification:'Nimbus Roman No9 L';writing-mode:lr-tb;fill:#000000;fill-opacity:1;fill-rule:nonzero;stroke:none;font-style:normal;font-stretch:normal;"
   id="text222"><tspan
     x="0"
     y="0"
     sodipodi:role="line"
     id="tspan220">60</tspan></text>


<text
   transform="matrix(1,0,0,-1,269.73,10.89)"
   style="font-variant:normal;font-weight:normal;font-size:8px;font-family:'Nimbus Roman No9 L';-inkscape-font-specification:'Nimbus Roman No9 L';writing-mode:lr-tb;fill:#000000;fill-opacity:1;fill-rule:nonzero;stroke:none;font-style:normal;font-stretch:normal;"
   id="text226"><tspan
     x="0"
     y="0"
     sodipodi:role="line"
     id="tspan224">64</tspan></text>


<text
   transform="matrix(1,0,0,-1,293.95,10.89)"
   style="font-variant:normal;font-weight:normal;font-size:8px;font-family:'Nimbus Roman No9 L';-inkscape-font-specification:'Nimbus Roman No9 L';writing-mode:lr-tb;fill:#000000;fill-opacity:1;fill-rule:nonzero;stroke:none;font-style:normal;font-stretch:normal;"
   id="text230"><tspan
     x="0"
     y="0"
     sodipodi:role="line"
     id="tspan228">68</tspan></text>


<text
   transform="matrix(1,0,0,-1,318.17,10.89)"
   style="font-variant:normal;font-weight:normal;font-size:8px;font-family:'Nimbus Roman No9 L';-inkscape-font-specification:'Nimbus Roman No9 L';writing-mode:lr-tb;fill:#000000;fill-opacity:1;fill-rule:nonzero;stroke:none;font-style:normal;font-stretch:normal;"
   id="text234"><tspan
     x="0"
     y="0"
     sodipodi:role="line"
     id="tspan232">72</tspan></text>


<text
   transform="matrix(1,0,0,-1,342.39,10.89)"
   style="font-variant:normal;font-weight:normal;font-size:8px;font-family:'Nimbus Roman No9 L';-inkscape-font-specification:'Nimbus Roman No9 L';writing-mode:lr-tb;fill:#000000;fill-opacity:1;fill-rule:nonzero;stroke:none;font-style:normal;font-stretch:normal;"
   id="text238"><tspan
     x="0"
     y="0"
     sodipodi:role="line"
     id="tspan236">76</tspan></text>


</g><g
   id="g240" /><g
   id="g242" /><g
   id="g244" /><g
   id="g246" /><g
   id="g248" /><g
   id="g250"><text
   transform="matrix(1,0,0,-1,161.81,1.74)"
   style="font-style:normal;font-variant:normal;font-weight:bold;font-stretch:normal;font-size:8px;font-family:'Nimbus Roman No9 L';-inkscape-font-specification:'Nimbus Roman No9 L Bold';writing-mode:lr-tb;fill:#000000;fill-opacity:1;fill-rule:nonzero;stroke:none;text-anchor:middle;text-align:center;"
   id="text254"
   x="29.005938"
   y="0"><tspan
     x="0"
     y="0"
     sodipodi:role="line"
     id="tspan252">Week of gestation</tspan></text>


</g><g
   id="g256" /><g
   id="g258"><text
   transform="matrix(0,1,1,0,7.58,79.24)"
   style="font-style:normal;font-variant:normal;font-weight:bold;font-stretch:normal;font-size:8px;font-family:'Nimbus Roman No9 L';-inkscape-font-specification:'Nimbus Roman No9 L Bold';text-align:center;writing-mode:lr-tb;text-anchor:middle;fill:#000000;fill-opacity:1;fill-rule:nonzero;stroke:none"
   id="text262"
   x="49.871624"
   y="0"><tspan
     x="49.871624"
     y="0"
     sodipodi:role="line"
     id="tspan260">Feto-infant deaths per 100,000</tspan></text>


<text
   transform="matrix(0,1,1,0,16.22,97.03)"
   style="font-style:normal;font-variant:normal;font-weight:bold;font-stretch:normal;font-size:8px;font-family:'Nimbus Roman No9 L';-inkscape-font-specification:'Nimbus Roman No9 L Bold';text-align:center;writing-mode:lr-tb;text-anchor:middle;fill:#000000;fill-opacity:1;fill-rule:nonzero;stroke:none"
   id="text266"
   x="33.796875"
   y="0"><tspan
     x="33.796875"
     y="0"
     sodipodi:role="line"
     id="tspan264">person-weeks at risk</tspan></text>


</g><g
   id="g268" /><g
   id="g270" /><g
   id="g272" /><g
   id="g274" /><g
   id="g276" /><g
   id="g278" /><g
   id="g280" /><g
   id="g282" /><g
   id="g284" /><g
   id="g286" /><g
   id="g288" /><g
   id="g290" /><text
   xml:space="preserve"
   style="font-style:normal;font-variant:normal;font-weight:normal;font-stretch:normal;font-size:6px;line-height:1.25;font-family:'Nimbus Roman No9 L';-inkscape-font-specification:'Nimbus Roman No9 L';letter-spacing:0px;word-spacing:0px;fill:#000000;fill-opacity:1;stroke:none;stroke-width:0.75"
   x="148.60487"
   y="-27.746046"
   id="text1099"
   transform="scale(1,-1)"><tspan
     sodipodi:role="line"
     id="tspan1097"
     x="148.60487"
     y="-27.746046"
     style="font-size:7px;stroke-width:0.75">Distribution of live births</tspan></text>


<text
   xml:space="preserve"
   style="font-style:normal;font-variant:normal;font-weight:normal;font-stretch:normal;font-size:6px;line-height:1.25;font-family:'Nimbus Roman No9 L';-inkscape-font-specification:'Nimbus Roman No9 L';letter-spacing:0px;word-spacing:0px;fill:#000000;fill-opacity:1;stroke:none;stroke-width:0.75"
   x="75.426201"
   y="-215.23764"
   id="text1099-3"
   transform="scale(1,-1)"><tspan
     sodipodi:role="line"
     id="tspan1097-6"
     x="75.426201"
     y="-215.23764"
     style="font-size:7px;stroke-width:0.75">Combined risk of feto-infant death</tspan></text>
</g></svg>